REM DIRINDEX 1\2,1\3,1\4,1\5,1\6
REM DIRNAME folder01,folder02,folder03,folder04,folder05,folder06
TITLE ""
FILE "Disc4Track35.mp3" MP3
  TRACK 01 AUDIO
    TITLE "3:cjc030_07029"
    INDEX 01 00:00:00
  TRACK 02 AUDIO
    TITLE "0:"
    INDEX 01 00:01:21
  TRACK 03 AUDIO
    TITLE "4:cjc030_07030"
    INDEX 01 00:01:28
  TRACK 04 AUDIO
    TITLE "0:"
    INDEX 01 00:03:12
  TRACK 05 AUDIO
    TITLE "5:cjc030_07031"
    INDEX 01 00:03:19
  TRACK 06 AUDIO
    TITLE "0:"
    INDEX 01 00:04:40
  TRACK 07 AUDIO
    TITLE "3:cjc030_07032"
    INDEX 01 00:05:16
  TRACK 08 AUDIO
    TITLE "0:"
    INDEX 01 00:06:41
  TRACK 09 AUDIO
    TITLE "4:cjc030_07033"
    INDEX 01 00:06:49
  TRACK 10 AUDIO
    TITLE "0:"
    INDEX 01 00:08:36
  TRACK 11 AUDIO
    TITLE "5:cjc030_07034"
    INDEX 01 00:08:46
  TRACK 12 AUDIO
    TITLE "0:"
    INDEX 01 00:09:71
  TRACK 13 AUDIO
    TITLE "3:cjc030_07035"
    INDEX 01 00:10:51
  TRACK 14 AUDIO
    TITLE "0:"
    INDEX 01 00:12:03
  TRACK 15 AUDIO
    TITLE "4:cjc030_07036"
    INDEX 01 00:12:09
  TRACK 16 AUDIO
    TITLE "0:"
    INDEX 01 00:13:16
  TRACK 17 AUDIO
    TITLE "5:cjc030_07037"
    INDEX 01 00:13:26
  TRACK 18 AUDIO
    TITLE "0:"
    INDEX 01 00:14:51
  TRACK 19 AUDIO
    TITLE "6:cjc030_07038"
    INDEX 01 00:14:64
  TRACK 20 AUDIO
    TITLE "0:"
    INDEX 01 00:19:34
  TRACK 21 AUDIO
    TITLE "3:cjc030_07039"
    INDEX 01 00:20:08
  TRACK 22 AUDIO
    TITLE "0:"
    INDEX 01 00:21:39
  TRACK 23 AUDIO
    TITLE "4:cjc030_07040"
    INDEX 01 00:21:49
  TRACK 24 AUDIO
    TITLE "0:"
    INDEX 01 00:22:54
  TRACK 25 AUDIO
    TITLE "5:cjc030_07041"
    INDEX 01 00:22:64
  TRACK 26 AUDIO
    TITLE "0:"
    INDEX 01 00:24:20
  TRACK 27 AUDIO
    TITLE "3:cjc030_07042"
    INDEX 01 00:25:01
  TRACK 28 AUDIO
    TITLE "0:"
    INDEX 01 00:26:18
  TRACK 29 AUDIO
    TITLE "4:cjc030_07043"
    INDEX 01 00:26:28
  TRACK 30 AUDIO
    TITLE "0:"
    INDEX 01 00:28:62
  TRACK 31 AUDIO
    TITLE "5:cjc030_07044"
    INDEX 01 00:28:70
  TRACK 32 AUDIO
    TITLE "0:"
    INDEX 01 00:30:10
  TRACK 33 AUDIO
    TITLE "3:cjc030_07045"
    INDEX 01 00:30:67
  TRACK 34 AUDIO
    TITLE "0:"
    INDEX 01 00:31:73
  TRACK 35 AUDIO
    TITLE "4:cjc030_07046"
    INDEX 01 00:32:05
  TRACK 36 AUDIO
    TITLE "0:"
    INDEX 01 00:33:07
  TRACK 37 AUDIO
    TITLE "5:cjc030_07047"
    INDEX 01 00:33:17
  TRACK 38 AUDIO
    TITLE "0:"
    INDEX 01 00:34:20
  TRACK 39 AUDIO
    TITLE "6:cjc030_07048"
    INDEX 01 00:34:32
  TRACK 40 AUDIO
    TITLE "0:"
    INDEX 01 00:37:40
  TRACK 41 AUDIO
    TITLE "3:cjc030_07049"
    INDEX 01 00:38:08
  TRACK 42 AUDIO
    TITLE "0:"
    INDEX 01 00:39:19
  TRACK 43 AUDIO
    TITLE "4:cjc030_07050"
    INDEX 01 00:39:25
  TRACK 44 AUDIO
    TITLE "0:"
    INDEX 01 00:40:58
  TRACK 45 AUDIO
    TITLE "5:cjc030_07051"
    INDEX 01 00:40:64
  TRACK 46 AUDIO
    TITLE "0:"
    INDEX 01 00:41:73
  TRACK 47 AUDIO
    TITLE "3:cjc030_07052"
    INDEX 01 00:42:53
  TRACK 48 AUDIO
    TITLE "0:"
    INDEX 01 00:43:70
  TRACK 49 AUDIO
    TITLE "4:cjc030_07053"
    INDEX 01 00:44:05
  TRACK 50 AUDIO
    TITLE "0:"
    INDEX 01 00:45:02
  TRACK 51 AUDIO
    TITLE "5:cjc030_07054"
    INDEX 01 00:45:10
  TRACK 52 AUDIO
    TITLE "0:"
    INDEX 01 00:46:29
  TRACK 53 AUDIO
    TITLE "3:cjc030_07055"
    INDEX 01 00:47:05
  TRACK 54 AUDIO
    TITLE "0:"
    INDEX 01 00:48:14
  TRACK 55 AUDIO
    TITLE "4:cjc030_07056"
    INDEX 01 00:48:22
  TRACK 56 AUDIO
    TITLE "0:"
    INDEX 01 00:50:01
  TRACK 57 AUDIO
    TITLE "5:cjc030_07057"
    INDEX 01 00:50:13
  TRACK 58 AUDIO
    TITLE "0:"
    INDEX 01 00:51:20
  TRACK 59 AUDIO
    TITLE "3:cjc030_07058"
    INDEX 01 00:52:02
  TRACK 60 AUDIO
    TITLE "0:"
    INDEX 01 00:53:11
  TRACK 61 AUDIO
    TITLE "4:cjc030_07059"
    INDEX 01 00:53:19
  TRACK 62 AUDIO
    TITLE "0:"
    INDEX 01 00:54:27
  TRACK 63 AUDIO
    TITLE "5:cjc030_07060"
    INDEX 01 00:54:34
  TRACK 64 AUDIO
    TITLE "0:"
    INDEX 01 00:55:46
  TRACK 65 AUDIO
    TITLE "6:cjc030_07061"
    INDEX 01 00:55:59
  TRACK 66 AUDIO
    TITLE "0:"
    INDEX 01 00:58:40
  TRACK 67 AUDIO
    TITLE "3:cjc030_07062"
    INDEX 01 00:59:12
  TRACK 68 AUDIO
    TITLE "0:"
    INDEX 01 01:00:12
  TRACK 69 AUDIO
    TITLE "4:cjc030_07063"
    INDEX 01 01:00:19
  TRACK 70 AUDIO
    TITLE "0:"
    INDEX 01 01:03:06
  TRACK 71 AUDIO
    TITLE "5:cjc030_07064"
    INDEX 01 01:03:16
  TRACK 72 AUDIO
    TITLE "0:"
    INDEX 01 01:04:13
  TRACK 73 AUDIO
    TITLE "6:cjc030_07065"
    INDEX 01 01:04:27
  TRACK 74 AUDIO
    TITLE "0:"
    INDEX 01 01:09:65
  TRACK 75 AUDIO
    TITLE "3:cjc030_07066"
    INDEX 01 01:10:37
  TRACK 76 AUDIO
    TITLE "0:"
    INDEX 01 01:11:52
  TRACK 77 AUDIO
    TITLE "4:cjc030_07067"
    INDEX 01 01:11:58
  TRACK 78 AUDIO
    TITLE "0:"
    INDEX 01 01:13:06
  TRACK 79 AUDIO
    TITLE "5:cjc030_07068"
    INDEX 01 01:13:16
  TRACK 80 AUDIO
    TITLE "0:"
    INDEX 01 01:14:29
  TRACK 81 AUDIO
    TITLE "6:cjc030_07069"
    INDEX 01 01:14:43
  TRACK 82 AUDIO
    TITLE "0:"
    INDEX 01 01:18:07
  TRACK 83 AUDIO
    TITLE "3:cjc030_07070"
    INDEX 01 01:18:56
  TRACK 84 AUDIO
    TITLE "0:"
    INDEX 01 01:20:00
  TRACK 85 AUDIO
    TITLE "4:cjc030_07071"
    INDEX 01 01:20:08
  TRACK 86 AUDIO
    TITLE "0:"
    INDEX 01 01:20:71
  TRACK 87 AUDIO
    TITLE "5:cjc030_07072"
    INDEX 01 01:21:04
  TRACK 88 AUDIO
    TITLE "0:"
    INDEX 01 01:22:23
